:SAMPLES-PER-SECOND 30
:FULLY-SPECIFIED
:DEGREES
404
root  40.3043 34.5261 47.4936 5.15002 42.5601 -2.79851
LeftUpLeg  -21.5222 9.50409 9.37569
LeftLeg  3.77592 6.61587 0.0104139
LeftFoot  12.8447 -0.165822 1.47306
LeftToes  -19.7888 1.61378e-006 8.80029e-008
Spine  2.90579 1.55191 0.557865
Spine1  5.76218 3.18512 1.08418
RightShoulder  0.0290334 4.9483 5.5708
RightArm  -32.6585 -14.818 70.2128
RightForeArm  22.4901 23.2813 4.34675
RightHand  0.51708 -7.91704 -7.07056
LeftShoulder1  0.0108034 0.807953 -9.94575
LeftArm  -23.0587 17.4129 -69.7811
LeftForeArm  30.4835 -17.2678 -3.13433
LeftHand  0.102199 2.85477 3.6683
HEad  -6.21376 -8.95413 -9.27396
RightUpLeg  -5.2724 -12.0739 3.93428
RightLeg  8.00798 7.09481 0.537348
RightFoot  -3.34657 -0.0228661 -0.40527
RightToes  -18.8366 -0.0750688 -0.167403
405
root  40.6427 34.4995 47.5309 5.05836 41.2758 -2.98784
LeftUpLeg  -21.5746 9.02221 10.1472
LeftLeg  5.20121 5.42853 0.143181
LeftFoot  13.1143 -0.141603 1.23185
LeftToes  -20.6386 1.61378e-006 8.80029e-008
Spine  2.85936 1.49655 0.496662
Spine1  5.65583 3.0903 0.949002
RightShoulder  0.0292074 4.97358 5.56393
RightArm  -31.4562 -13.6558 70.1934
RightForeArm  22.4382 23.803 4.45654
RightHand  0.528996 -7.75727 -7.3615
LeftShoulder1  0.0120533 0.650649 -9.97859
LeftArm  -23.1679 16.9681 -69.4182
LeftForeArm  30.5738 -16.7124 -3.02731
LeftHand  0.102263 2.86358 3.72785
HEad  -6.0615 -8.41396 -9.34858
RightUpLeg  -4.98401 -11.6481 3.52481
RightLeg  8.24749 7.9101 0.631848
RightFoot  -3.61945 -0.0273784 -0.489041
RightToes  -19.754 -0.0800917 -0.174842
406
root  41.0447 34.4707 47.5604 5.05354 39.794 -2.91475
LeftUpLeg  -21.281 8.26064 10.6314
LeftLeg  7.85508 4.26181 0.309778
LeftFoot  14.5318 -0.136851 1.07217
LeftToes  -20.9405 1.61378e-006 8.80029e-008
Spine  2.85118 1.51419 0.346031
Spine1  5.62119 3.14274 0.646618
RightShoulder  0.029294 4.86485 5.7136
RightArm  -29.7017 -12.4083 70.0226
RightForeArm  22.3538 23.7599 4.44744
RightHand  0.544612 -7.59044 -7.81923
LeftShoulder1  0.0136119 0.537883 -9.94686
LeftArm  -23.2207 16.4973 -69.134
LeftForeArm  30.6711 -16.5171 -2.98979
LeftHand  0.101699 2.859 3.73179
HEad  -5.81457 -8.1034 -9.30325
RightUpLeg  -4.61958 -11.1993 2.78358
RightLeg  8.58791 8.84062 0.758281
RightFoot  -3.9247 -0.0332627 -0.593346
RightToes  -21.4007 -0.0894037 -0.187987
407
root  41.5243 34.4324 47.6071 5.11046 38.3087 -2.82266
LeftUpLeg  -20.589 7.85719 10.6928
LeftLeg  10.3684 3.06783 0.358288
LeftFoot  16.609 -0.12917 0.884914
LeftToes  -25.4833 1.61378e-006 8.80029e-008
Spine  2.76757 1.53637 0.199361
Spine1  5.4356 3.20075 0.359177
RightShoulder  0.0291504 4.93978 5.72983
RightArm  -28.4431 -11.4982 69.9562
RightForeArm  22.8598 23.1995 4.32957
RightHand  0.545015 -7.54435 -7.87525
LeftShoulder1  0.0154857 0.497103 -9.9087
LeftArm  -23.2321 16.2601 -68.9563
LeftForeArm  30.6704 -16.5346 -2.99314
LeftHand  0.102809 2.8678 3.87465
HEad  -5.36403 -7.95602 -9.35877
RightUpLeg  -4.11958 -10.212 1.94423
RightLeg  8.67255 9.22448 0.8046
RightFoot  -4.17629 -0.0377436 -0.657708
RightToes  -23.6744 -0.102875 -0.205689
408
root  42.0604 34.3898 47.6717 5.35629 37.0287 -2.39296
LeftUpLeg  -19.467 8.12305 10.0035
LeftLeg  10.9121 4.34885 0.54992
LeftFoot  13.7665 -0.126133 1.04483
LeftToes  -27.5269 1.61378e-006 8.80029e-008
Spine  2.63374 1.50108 -0.0114387
Spine1  5.14536 3.14331 -0.0377349
RightShoulder  0.028923 4.99635 5.64789
RightArm  -27.4533 -11.0003 70.0955
RightForeArm  23.2742 22.7645 4.23878
RightHand  0.54326 -7.83909 -7.54013
LeftShoulder1  0.0196929 0.573388 -9.98858
LeftArm  -23.1898 16.1305 -68.7291
LeftForeArm  30.6269 -16.6573 -3.0167
LeftHand  0.102713 2.75567 3.86255
HEad  -4.74573 -7.90699 -9.59413
RightUpLeg  -3.6767 -8.69949 0.81847
RightLeg  9.01041 8.8371 0.823394
RightFoot  -4.63091 -0.043283 -0.692979
RightToes  -26.0423 -0.117639 -0.22354
409
root  42.6341 34.3745 47.7281 5.86104 36.2758 -1.32681
LeftUpLeg  -18.0436 7.94619 8.64653
LeftLeg  9.96655 5.19203 0.569861
LeftFoot  13.3628 -0.141919 1.21144
LeftToes  -26.2812 1.61378e-006 8.80029e-008
Spine  2.5716 1.32131 -0.37675
Spine1  4.99017 2.79296 -0.716928
RightShoulder  0.0288228 4.95182 5.77212
RightArm  -26.5066 -11.0086 70.3126
RightForeArm  22.0929 23.5191 4.39671
RightHand  0.531286 -8.66876 -6.62596
LeftShoulder1  0.0267823 0.614613 -10.3439
LeftArm  -22.7998 15.8166 -68.1193
LeftForeArm  30.2941 -16.8674 -3.05725
LeftHand  0.103652 2.72855 3.97011
HEad  -4.1744 -8.04418 -9.77036
RightUpLeg  -3.2755 -6.87628 -0.784202
RightLeg  9.71721 7.55301 0.798311
RightFoot  -5.28054 -0.0479653 -0.662656
RightToes  -27.3594 -0.126166 -0.2332
410
root  43.2008 34.3907 47.7794 6.68608 35.9551 0.112198
LeftUpLeg  -17.2175 8.35234 6.81897
LeftLeg  9.84082 4.93937 0.531207
LeftFoot  12.3155 -0.114821 1.06421
LeftToes  -25.2674 1.61378e-006 8.80029e-008
Spine  2.47328 1.14353 -0.896678
Spine1  4.76782 2.43357 -1.68412
RightShoulder  0.0288617 4.68296 5.85219
RightArm  -26.2256 -11.6498 71.1676
RightForeArm  20.8945 24.9854 4.70886
RightHand  0.49314 -9.04538 -5.85404
LeftShoulder1  0.0347095 0.461568 -10.441
LeftArm  -22.3443 15.3171 -67.4037
LeftForeArm  29.966 -16.9816 -3.07943
LeftHand  0.10136 2.78805 3.86643
HEad  -3.50646 -8.5979 -9.71054
RightUpLeg  -2.87336 -3.96607 -2.49369
RightLeg  10.1568 4.78458 0.54392
RightFoot  -5.76257 -0.0408914 -0.434951
RightToes  -28.0197 -0.130525 -0.23797
411
root  43.7805 34.4255 47.8242 7.46951 35.8033 1.41032
LeftUpLeg  -16.5257 9.28496 4.98934
LeftLeg  9.81909 3.97237 0.425659
LeftFoot  11.1776 -0.0761098 0.777775
LeftToes  -24.6016 1.61378e-006 8.80029e-008
Spine  2.35697 1.09001 -1.42658
Spine1  4.51917 2.31623 -2.67748
RightShoulder  0.028993 4.55806 5.89693
RightArm  -26.5073 -12.9664 72.2663
RightForeArm  19.7927 26.9206 5.13283
RightHand  0.479555 -9.23693 -5.55719
LeftShoulder1  0.0402024 0.29785 -10.1683
LeftArm  -22.057 14.5964 -66.9602
LeftForeArm  29.9856 -17.006 -3.08411
LeftHand  0.100107 2.84054 3.84384
HEad  -2.74945 -9.5421 -9.57154
RightUpLeg  -2.56389 -2.47444 -4.20414
RightLeg  10.7892 3.31017 0.413841
RightFoot  -6.10762 -0.0360905 -0.298969
RightToes  -28.5867 -0.134311 -0.242024
412
root  44.3355 34.452 47.849 8.18034 35.5806 2.28011
LeftUpLeg  -16.0055 10.4354 3.49342
LeftLeg  9.63854 2.88065 0.299329
LeftFoot  10.1728 -0.045692 0.513332
LeftToes  -24.3166 1.61378e-006 8.80029e-008
Spine  2.26192 1.14994 -1.80192
Spine1  4.31666 2.41724 -3.36803
RightShoulder  0.0289038 4.49028 6.03295
RightArm  -24.8518 -14.4811 72.726
RightForeArm  17.2085 29.981 5.83493
RightHand  0.527341 -9.80846 -5.76617
LeftShoulder1  0.0429619 0.329795 -10.0917
LeftArm  -21.9352 13.6038 -66.6331
LeftForeArm  30.0342 -17.1908 -3.11971
LeftHand  0.101442 2.78362 3.98571
HEad  -2.12357 -10.6423 -9.53735
RightUpLeg  -2.56575 -1.98027 -5.64657
RightLeg  11.5495 2.8784 0.398812
RightFoot  -6.30262 -0.0349626 -0.257508
RightToes  -29.4971 -0.140473 -0.248456
413
root  44.8398 34.475 47.8517 8.75307 35.5647 2.81502
LeftUpLeg  -16.1043 11.7754 2.17674
LeftLeg  10.2756 1.59406 0.183054
LeftFoot  8.92272 -0.0195533 0.250599
LeftToes  -22.878 1.61378e-006 8.80029e-008
Spine  2.2393 1.14782 -2.04074
Spine1  4.25764 2.39715 -3.79692
RightShoulder  0.0285124 4.46132 6.03304
RightArm  -21.0475 -15.5841 72.6804
RightForeArm  15.6218 34.3435 6.91821
RightHand  0.574409 -9.91851 -6.23835
LeftShoulder1  0.0448687 0.431069 -10.2217
LeftArm  -21.9848 12.5894 -66.2638
LeftForeArm  29.6692 -17.7129 -3.221
LeftHand  0.103677 2.68323 4.20314
HEad  -1.94463 -11.7624 -9.57195
RightUpLeg  -2.58906 -1.52483 -6.7074
RightLeg  12.0952 2.1727 0.322397
RightFoot  -6.20812 -0.0298143 -0.172251
RightToes  -30.6412 -0.148361 -0.256398
414
root  45.3138 34.5027 47.8566 8.88498 35.6354 3.05968
LeftUpLeg  -16.0821 11.8417 1.37072
LeftLeg  11.3204 1.46323 0.194907
LeftFoot  7.48938 -0.0127397 0.194638
LeftToes  -21.453 1.61378e-006 8.80029e-008
Spine  2.39717 1.13266 -2.18955
Spine1  4.55947 2.36729 -4.0744
RightShoulder  0.0285081 4.46774 5.96867
RightArm  -17.6477 -15.8141 72.3283
RightForeArm  15.8858 40.1166 8.54878
RightHand  0.477914 -9.2846 -5.50655
LeftShoulder1  0.0463633 0.515031 -10.2406
LeftArm  -22.1731 11.5483 -66.021
LeftForeArm  29.0533 -18.4328 -3.36172
LeftHand  0.102499 2.58127 4.21625
HEad  -2.22034 -12.7512 -9.62399
RightUpLeg  -2.41107 -1.27401 -7.46026
RightLeg  12.7301 1.42778 0.228356
RightFoot  -5.96325 -0.024075 -0.0846742
RightToes  -31.9963 -0.157907 -0.265598
415
root  45.7356 34.5382 47.8563 8.92676 35.1359 3.24544
LeftUpLeg  -15.5176 11.1498 0.823599
LeftLeg  11.4435 2.56767 0.348536
LeftFoot  6.67226 -0.0170177 0.305181
LeftToes  -20.662 1.61378e-006 8.80029e-008
Spine  2.55739 1.27901 -2.36639
Spine1  4.8547 2.67406 -4.41557
RightShoulder  0.0295184 4.34838 5.62797
RightArm  -14.0784 -15.1324 71.9355
RightForeArm  15.9232 47.4932 11.1105
RightHand  0.515443 -9.22743 -6.00643
LeftShoulder1  0.0475304 0.436092 -10.0581
LeftArm  -22.3417 10.8432 -65.8047
LeftForeArm  28.5776 -19.2309 -3.51904
LeftHand  0.102001 2.47505 4.33701
HEad  -2.56701 -13.5606 -9.61987
RightUpLeg  -2.48813 -0.562078 -8.17326
RightLeg  13.6068 0.856132 0.150644
RightFoot  -5.62809 -0.0195122 -0.0194137
RightToes  -33.5836 -0.169361 -0.276085
416
root  46.1247 34.5785 47.855 8.92424 34.2713 3.23383
LeftUpLeg  -15.0733 11.0129 0.374133
LeftLeg  11.5995 3.55462 0.492694
LeftFoot  5.93882 -0.0196457 0.378722
LeftToes  -19.5891 1.61378e-006 8.80029e-008
Spine  2.66563 1.5138 -2.54941
Spine1  5.03273 3.17419 -4.79117
RightShoulder  0.0329795 4.26767 5.19237
RightArm  -11.4201 -13.4225 71.4228
RightForeArm  17.7681 55.9623 15.1814
RightHand  0.551944 -8.57224 -6.97913
LeftShoulder1  0.0480707 0.347057 -9.73293
LeftArm  -22.2969 10.4146 -65.5534
LeftForeArm  28.3758 -19.9696 -3.66596
LeftHand  0.10171 2.328 4.61892
HEad  -2.69529 -14.222 -9.50001
RightUpLeg  -2.87793 -0.164202 -8.80522
RightLeg  14.702 0.984783 0.19236
RightFoot  -5.15372 -0.0193653 -0.0238563
RightToes  -35.5301 -0.183796 -0.288506
417
root  46.5009 34.6175 47.8553 8.77425 33.4661 3.1241
LeftUpLeg  -14.7218 10.9368 -0.0154164
LeftLeg  12.0595 4.5028 0.66102
LeftFoot  5.09528 -0.0209297 0.416406
LeftToes  -18.0657 1.61378e-006 8.80029e-008
Spine  2.76435 1.71732 -2.71332
Spine1  5.17884 3.62655 -5.14589
RightShoulder  0.0374165 4.14414 4.71138
RightArm  -10.211 -10.1721 70.8626
RightForeArm  21.4786 64.0244 21.3258
RightHand  0.572486 -8.19778 -7.59988
LeftShoulder1  0.0496904 0.338542 -9.466
LeftArm  -22.2449 10.0954 -65.25
LeftForeArm  28.5695 -20.4359 -3.75928
LeftHand  0.0950763 2.10435 4.78747
HEad  -2.44761 -14.6533 -9.31911
RightUpLeg  -3.24552 -0.629593 -9.45674
RightLeg  15.9056 1.97199 0.427374
RightFoot  -4.62863 -0.0186015 -0.0935696
RightToes  -37.5032 -0.198851 -0.300588
418
root  46.8501 34.6572 47.8505 8.62172 32.7864 3.00302
LeftUpLeg  -14.2968 10.6357 -0.358768
LeftLeg  12.2332 5.54471 0.830979
LeftFoot  4.46913 -0.0226872 0.45496
LeftToes  -16.6173 1.61378e-006 8.80029e-008
Spine  2.8435 1.91626 -2.89019
Spine1  5.27214 4.07888 -5.5316
RightShoulder  0.0419698 4.08998 4.28118
RightArm  -11.0317 -5.28018 70.2775
RightForeArm  27.0671 70.1013 29.353
RightHand  0.599811 -8.41887 -7.75987
LeftShoulder1  0.0516782 0.357977 -9.22001
LeftArm  -22.451 9.7917 -64.9938
LeftForeArm  29.0465 -20.5882 -3.7897
LeftHand  0.095819 2.03713 4.99844
HEad  -2.17821 -15.2098 -9.01672
RightUpLeg  -3.63385 -1.15059 -10.0547
RightLeg  17.1044 2.93025 0.698861
RightFoot  -4.00589 -0.0179691 -0.136284
RightToes  -39.6877 -0.215993 -0.313351
